# xmcd
# 
# Track frame offsets:
#     150
#     61003
#     77884
#     108314
#     169197
#     194614
#     237514
#     277045
#     287887
# 
# Disc length: 4258
# 
# Revision: 0
# Processed by: cddbd v1.5.2PL0 Copyright (c) Steve Scherf et al.
# Submitted via: BonkEnc v1.0
# 
DISCID=8410a009
DTITLE=Flowers Must Die - First Album (Early mixes)
DYEAR=2007
DGENRE=Blues
TTITLE0=Untitled 1
TTITLE1=Untitled 2
TTITLE2=Untitled 3
TTITLE3=Untitled 4
TTITLE4=Untitled 5
TTITLE5=Untitled 6
TTITLE6=Untitled 7
TTITLE7=Untitled 8
TTITLE8=JH - Kel and Smek
EXTD=
EXTT0=
EXTT1=
EXTT2=
EXTT3=
EXTT4=
EXTT5=
EXTT6=
EXTT7=
EXTT8=Not Flowers Must Die
PLAYORDER=
